<?xml version="1.0" standalone="no"?>
<!DOCTYPE svg PUBLIC "-//W3C//DTD SVG 20010904//EN"
 "http://www.w3.org/TR/2001/REC-SVG-20010904/DTD/svg10.dtd">
<svg version="1.0" xmlns="http://www.w3.org/2000/svg"
 width="640.000000pt" height="640.000000pt" viewBox="0 0 640.000000 640.000000"
 preserveAspectRatio="xMidYMid meet">

<g transform="translate(0.000000,640.000000) scale(0.100000,-0.100000)"
fill="#000000" stroke="none">
<path d="M2023 5868 c-36 -45 -101 -210 -137 -348 -76 -288 -87 -658 -26 -895
29 -112 88 -229 194 -383 52 -76 117 -181 145 -233 47 -87 51 -91 51 -59 0 50
-36 193 -61 243 -12 23 -48 85 -80 138 -33 53 -59 101 -59 107 0 43 80 -25
141 -120 47 -73 55 -63 27 32 -6 19 -29 61 -50 93 -68 100 -32 130 57 46 68
-65 74 -45 15 54 -22 36 -40 68 -40 71 0 4 10 6 23 6 13 0 46 -20 76 -45 51
-44 80 -58 65 -32 -4 6 -36 54 -71 105 -35 51 -79 123 -97 161 -131 259 -202
677 -165 974 11 91 9 107 -8 85z"/>
<path d="M4363 5839 c47 -314 -21 -758 -158 -1030 -19 -37 -66 -114 -104 -170
-39 -57 -68 -105 -66 -107 5 -6 39 17 85 57 30 27 80 42 80 25 0 -3 -18 -35
-40 -71 -59 -99 -53 -119 15 -54 89 84 125 54 57 -46 -21 -32 -44 -74 -50 -93
-28 -95 -20 -105 27 -32 61 95 141 163 141 120 0 -6 -26 -54 -59 -107 -32 -53
-68 -115 -80 -138 -25 -50 -61 -193 -61 -243 0 -32 4 -28 51 59 28 52 93 157
145 233 151 219 201 344 225 565 14 131 6 390 -16 523 -29 177 -84 356 -146
482 -38 75 -54 85 -46 27z"/>
<path d="M2534 5080 c-43 -95 -84 -295 -84 -409 0 -111 33 -244 87 -351 54
-106 73 -123 73 -62 0 52 27 85 69 85 18 0 39 -7 48 -16 18 -18 23 -78 10
-114 -7 -19 8 -38 100 -135 97 -101 146 -162 264 -325 l36 -50 -18 -35 c-25
-50 -60 -225 -66 -340 -9 -158 5 -152 47 20 37 147 81 262 101 262 29 0 73
-121 111 -302 13 -60 27 -108 32 -108 5 0 6 53 3 128 -6 134 -34 281 -66 344
-16 33 -17 39 -4 50 8 7 33 39 56 73 68 102 137 186 240 293 62 63 97 107 94
116 -19 48 -18 82 3 108 27 36 55 43 85 24 26 -17 48 -77 38 -103 -14 -36 24
-3 54 48 63 104 103 262 103 403 0 127 -66 410 -101 431 -5 4 -9 -43 -9 -117
0 -73 -6 -148 -15 -186 -26 -112 -98 -232 -239 -402 -109 -131 -265 -362 -332
-493 l-51 -100 -53 99 c-73 137 -204 333 -302 454 -123 152 -176 227 -218 310
-54 108 -61 139 -69 300 l-7 145 -20 -45z"/>
<path d="M745 4947 c-14 -94 48 -345 123 -497 43 -88 86 -138 158 -186 51 -34
117 -110 147 -169 50 -100 63 -279 25 -355 -29 -57 -58 -72 -124 -66 -101 9
-232 103 -287 206 -15 27 -20 31 -28 19 -22 -35 -3 -204 32 -276 32 -66 118
-154 243 -247 188 -140 277 -255 311 -397 22 -97 19 -182 -11 -264 -32 -87
-39 -115 -28 -115 5 0 47 7 94 15 215 38 396 2 576 -116 33 -21 64 -39 67 -39
4 0 -4 22 -17 48 -41 81 -138 157 -251 197 -27 10 -57 24 -65 32 -13 12 -11
18 22 48 45 42 99 57 175 49 l58 -5 -24 20 c-38 34 -153 64 -208 56 -69 -10
-153 -57 -225 -123 -57 -53 -108 -90 -108 -78 0 2 12 28 28 57 22 43 28 69 30
140 7 163 -36 277 -140 373 -33 31 -59 58 -57 60 2 3 38 1 79 -4 41 -5 111 -6
155 -3 115 8 208 -11 316 -63 51 -25 94 -43 96 -40 10 9 -31 56 -80 94 -125
94 -257 147 -410 163 -356 36 -434 54 -482 111 -14 17 -25 32 -23 33 2 2 37
-8 78 -22 107 -37 200 -37 261 -1 89 52 129 150 129 314 0 57 3 105 8 108 21
13 256 -89 399 -172 38 -23 92 -61 120 -86 28 -26 54 -46 57 -46 18 0 -46 94
-108 159 -75 78 -159 144 -321 256 -239 163 -491 385 -615 540 -59 74 -115
175 -130 235 -18 73 -21 80 -30 80 -5 0 -12 -19 -15 -43z"/>
<path d="M5626 4973 c-3 -10 -10 -38 -16 -63 -15 -60 -71 -161 -130 -235 -124
-155 -376 -377 -615 -540 -162 -112 -246 -178 -321 -256 -62 -65 -126 -159
-108 -159 3 0 28 20 55 44 58 52 166 117 299 180 105 49 210 87 222 80 5 -3 8
-51 8 -108 0 -164 40 -262 129 -314 62 -36 155 -36 260 1 41 15 77 25 78 23 2
-2 -8 -17 -22 -34 -48 -57 -126 -75 -482 -111 -153 -16 -285 -69 -410 -163
-49 -38 -90 -85 -80 -94 2 -3 45 15 96 40 108 52 201 71 316 63 44 -3 114 -2
155 3 41 5 77 7 79 4 2 -2 -24 -29 -57 -60 -104 -96 -147 -210 -140 -373 2
-71 8 -97 31 -140 15 -29 27 -55 27 -57 0 -12 -51 25 -108 78 -72 66 -156 113
-225 123 -55 8 -170 -22 -208 -56 l-24 -20 58 5 c76 8 130 -7 175 -49 33 -30
35 -36 22 -48 -8 -8 -37 -22 -65 -32 -70 -24 -131 -61 -183 -109 -43 -39 -86
-108 -80 -127 2 -5 27 7 57 27 175 118 366 157 581 119 47 -8 89 -15 94 -15
11 0 4 28 -28 115 -61 168 -13 362 129 514 33 35 110 101 171 147 125 93 211
181 243 247 35 72 54 241 32 276 -8 12 -13 8 -28 -19 -55 -103 -186 -197 -287
-206 -66 -6 -95 9 -123 66 -39 76 -26 255 24 355 30 59 96 135 147 169 72 48
115 98 158 186 75 152 137 403 123 497 -6 44 -20 56 -29 26z"/>
<path d="M3114 4786 c-100 -216 -102 -221 -145 -222 -43 -2 -42 -13 9 -114 36
-73 212 -349 222 -349 10 0 186 276 222 349 51 101 52 112 9 114 -43 1 -45 6
-145 222 -43 96 -82 174 -86 174 -4 0 -43 -78 -86 -174z m109 -64 c39 -96 69
-236 64 -290 -6 -58 -68 -202 -87 -202 -19 0 -81 144 -87 202 -4 40 1 78 22
153 30 113 54 175 65 175 4 0 15 -17 23 -38z"/>
<path d="M2447 4190 c-40 -70 -57 -150 -57 -278 0 -164 38 -320 115 -473 26
-51 26 -53 15 -135 -7 -46 -13 -84 -15 -84 -2 0 -39 60 -83 133 -119 198 -218
401 -304 622 l-39 100 3 -170 c3 -153 5 -175 26 -216 30 -61 29 -113 -2 -144
-73 -73 -169 -28 -206 96 -23 76 -40 82 -40 16 0 -79 24 -140 87 -228 68 -93
83 -124 83 -173 0 -46 -33 -84 -98 -113 -29 -13 -52 -27 -50 -32 2 -4 31 -31
65 -59 34 -29 98 -96 142 -151 44 -54 87 -101 95 -104 19 -8 19 -9 0 44 -21
60 -41 160 -49 244 -8 79 10 184 44 261 23 52 37 53 65 5 18 -32 18 -34 0 -94
-36 -117 -21 -273 36 -387 31 -62 105 -136 145 -146 24 -6 26 -10 21 -43 -3
-20 -10 -85 -17 -144 -23 -224 19 -112 81 213 l10 55 65 2 c55 3 68 0 93 -22
16 -14 37 -40 46 -59 27 -58 21 -95 -30 -171 -51 -77 -96 -166 -88 -174 3 -3
31 22 63 56 33 34 113 97 178 141 74 49 139 103 171 138 l51 59 31 -69 c17
-38 28 -77 25 -87 -8 -23 -87 -93 -143 -126 -34 -20 -52 -24 -88 -20 -37 4
-51 0 -89 -25 -60 -40 -129 -118 -159 -181 -31 -63 -46 -156 -36 -217 l7 -45
21 45 c25 54 47 81 85 105 25 16 29 16 52 1 67 -44 171 -231 314 -567 81 -189
86 -221 50 -348 -14 -49 -19 -88 -15 -113 7 -43 65 -178 76 -178 11 0 69 135
76 178 4 25 -1 64 -15 113 -36 127 -31 159 50 348 143 336 247 523 314 567 23
15 27 15 53 -1 37 -24 59 -51 84 -105 l21 -45 7 45 c10 61 -5 154 -36 217 -30
63 -99 141 -159 181 -37 25 -52 29 -88 25 -29 -4 -54 0 -74 10 -44 23 -130 94
-149 122 -15 23 -14 28 13 95 15 38 31 70 34 70 3 0 27 -25 53 -55 29 -34 95
-87 168 -136 66 -45 146 -108 179 -142 32 -34 60 -59 63 -56 8 8 -37 97 -88
174 -51 76 -57 113 -30 171 9 19 30 45 46 59 25 22 38 25 93 22 l65 -2 10 -55
c62 -325 104 -437 81 -213 -7 59 -14 124 -17 144 -5 33 -3 37 21 43 40 10 114
84 145 146 57 114 72 270 36 387 -18 60 -18 62 1 95 10 18 26 33 34 33 19 0
59 -103 71 -184 13 -93 -7 -249 -46 -360 -19 -53 -19 -52 0 -44 8 3 51 50 95
104 44 55 108 122 142 151 34 28 63 55 65 59 2 5 -21 19 -50 32 -65 29 -98 67
-98 113 0 49 15 80 83 173 63 88 87 149 87 228 0 66 -17 60 -40 -16 -37 -124
-133 -169 -206 -96 -31 31 -32 83 -2 144 21 41 23 63 26 216 l3 170 -39 -100
c-86 -221 -185 -424 -304 -622 -44 -73 -81 -133 -83 -133 -2 0 -8 38 -15 84
-11 82 -11 84 15 135 39 79 82 200 99 285 21 98 21 283 0 361 -16 65 -65 157
-72 137 -2 -6 4 -53 12 -104 17 -96 11 -202 -15 -303 -15 -56 -70 -195 -78
-195 -4 0 -16 48 -27 108 -26 132 -74 257 -118 308 l-33 39 -7 -65 c-27 -262
-50 -364 -122 -548 -76 -191 -135 -292 -219 -372 l-36 -35 -19 25 c-11 14 -27
42 -36 63 -9 20 -20 37 -24 37 -4 0 -15 -17 -24 -37 -9 -21 -25 -49 -36 -63
l-19 -25 -36 35 c-84 80 -143 181 -219 372 -72 184 -95 286 -122 548 l-7 65
-33 -39 c-44 -51 -92 -176 -118 -308 -11 -60 -23 -108 -27 -108 -8 0 -63 139
-78 195 -26 101 -32 207 -15 303 8 51 14 98 12 104 -3 7 -16 -8 -31 -32z m264
-679 c16 -77 63 -215 89 -258 24 -41 21 -48 -14 -39 -38 9 -56 34 -56 76 0 28
-13 60 -50 122 l-50 84 15 79 c8 44 20 95 27 115 12 35 12 34 20 -44 4 -44 13
-105 19 -135z m1040 82 l20 -96 -51 -84 c-37 -62 -50 -95 -50 -123 0 -42 -18
-67 -56 -76 -35 -9 -38 -2 -14 39 51 85 110 314 110 426 1 67 17 32 41 -86z
m-1095 -415 c27 -45 61 -97 76 -114 l28 -32 40 21 c36 20 42 21 66 7 15 -8 36
-28 48 -43 42 -57 15 -193 -46 -227 -46 -25 -72 -1 -189 175 l-106 160 10 72
c5 40 13 70 17 68 5 -3 30 -42 56 -87z m1065 -213 c-117 -176 -143 -200 -188
-175 -62 34 -89 170 -47 227 12 15 33 35 48 43 24 14 30 13 65 -6 l40 -22 24
27 c14 14 44 58 67 96 81 135 73 131 86 45 l11 -75 -106 -160z m-1353 40 c15
-52 33 -87 57 -114 36 -39 43 -74 29 -129 l-7 -23 -19 28 c-48 72 -89 154 -97
198 -9 49 -4 115 8 115 4 0 17 -34 29 -75z m1705 42 c11 -70 -23 -164 -101
-280 l-19 -28 -7 23 c-14 55 -7 90 29 129 24 27 42 62 57 114 12 41 25 75 29
75 3 0 9 -15 12 -33z m-809 -612 c61 -50 111 -75 151 -75 38 0 62 -16 69 -46
8 -31 -17 -118 -44 -153 -18 -24 -18 -24 -45 -7 -21 14 -26 24 -23 46 4 26 1
29 -37 39 -24 6 -62 28 -88 52 l-47 41 -47 -41 c-26 -24 -64 -46 -88 -52 -38
-10 -41 -13 -37 -39 3 -22 -2 -32 -23 -46 -27 -17 -27 -17 -45 7 -27 35 -52
122 -44 153 7 30 31 46 69 46 40 0 90 25 151 75 31 25 60 45 64 45 4 0 33 -20
64 -45z m5 -278 c36 -35 77 -70 90 -79 l23 -16 -18 -49 c-9 -26 -21 -52 -25
-57 -13 -15 -68 15 -104 57 l-35 41 -35 -41 c-36 -42 -91 -72 -104 -57 -4 5
-16 31 -25 57 l-18 49 23 16 c13 9 53 44 89 79 36 34 67 63 69 63 3 0 34 -28
70 -63z m-13 -266 l48 -45 -50 -143 c-27 -79 -51 -143 -54 -143 -3 0 -27 65
-55 144 l-49 144 49 45 c28 26 53 45 56 44 4 -1 28 -22 55 -46z"/>
<path d="M2243 2498 c3 -7 13 -37 23 -67 21 -70 7 -146 -37 -196 -38 -43 -65
-52 -90 -29 -23 20 -24 61 -5 130 39 137 24 126 -70 -53 -70 -133 -85 -155
-161 -228 -45 -44 -83 -84 -83 -88 0 -13 124 -7 185 8 103 26 196 78 258 145
31 33 64 60 72 60 26 0 91 -67 146 -152 48 -73 54 -79 57 -55 7 60 -60 254
-126 362 -44 73 -105 141 -145 162 -23 11 -28 12 -24 1z"/>
<path d="M4125 2491 c-41 -25 -94 -85 -137 -157 -66 -107 -133 -301 -126 -361
3 -25 7 -21 48 42 57 89 127 165 152 165 10 0 43 -26 73 -58 90 -96 209 -149
358 -159 48 -3 87 -2 87 3 0 5 -38 45 -83 89 -76 73 -91 95 -161 228 -94 179
-109 190 -70 53 8 -27 14 -64 14 -81 0 -39 -30 -70 -59 -60 -36 11 -79 71 -92
129 -11 49 -10 62 9 118 11 35 19 64 18 65 -1 1 -15 -6 -31 -16z"/>
<path d="M2694 1863 c4 -15 0 -51 -9 -78 -37 -122 -3 -199 102 -232 29 -9 53
-21 53 -27 0 -27 61 -135 95 -170 34 -34 114 -81 123 -72 2 2 -14 30 -35 63
-21 33 -62 119 -91 192 -29 72 -67 155 -83 184 -32 53 -110 141 -142 159 -17
9 -18 7 -13 -19z"/>
<path d="M3644 1838 c-70 -66 -110 -134 -176 -300 -29 -72 -70 -158 -91 -191
-21 -33 -37 -61 -35 -63 9 -9 89 38 123 72 34 35 95 143 95 170 0 6 24 18 53
27 105 33 139 110 102 232 -9 27 -13 62 -9 77 3 16 3 28 -1 28 -3 0 -31 -24
-61 -52z"/>
<path d="M2512 1723 c-70 -132 -68 -340 5 -475 28 -51 120 -145 131 -134 3 4
11 21 17 39 8 25 17 33 38 35 38 5 53 -10 92 -87 18 -36 57 -100 85 -141 87
-127 115 -172 161 -254 54 -97 125 -176 159 -176 34 0 105 79 159 176 24 43
83 138 131 209 48 72 101 157 118 191 36 72 52 86 89 82 21 -2 30 -10 38 -35
6 -18 14 -35 17 -39 11 -11 103 83 131 134 73 135 75 343 5 475 l-23 42 -5
-135 c-6 -156 -18 -188 -95 -259 -45 -42 -49 -43 -96 -38 -27 3 -49 2 -49 -2
0 -37 -266 -418 -374 -536 l-46 -50 -46 50 c-108 118 -374 499 -374 536 0 4
-22 5 -49 2 -47 -5 -51 -4 -96 38 -77 71 -89 103 -95 259 l-5 135 -23 -42z"/>
</g>
</svg>
